<svg id="Layer_1" data-name="Layer 1" xmlns="http://www.w3.org/2000/svg" viewBox="0 0 117 148.5"><defs><style>.cls-1{fill:none;stroke:#000;stroke-miterlimit:10;stroke-width:13px;}</style></defs><title>locked</title><path class="cls-1" d="M152.5,94V52a31,31,0,0,0-62,0V94" transform="translate(-64 -14.5)"/><path d="M67.45,162.5a3,3,0,0,1-3-2.95V81.45a3,3,0,0,1,3-3h110.1a3,3,0,0,1,2.95,3v78.1a3,3,0,0,1-2.95,2.95Zm46.89-24h14.22l-4.17-15a9.5,9.5,0,1,0-5.87,0Z" transform="translate(-64 -14.5)"/><path d="M177.55,79A2.45,2.45,0,0,1,180,81.45v78.1a2.45,2.45,0,0,1-2.45,2.45H67.45A2.45,2.45,0,0,1,65,159.55V81.45A2.45,2.45,0,0,1,67.45,79h110.1m-59.64,44.83L114,137.73l-.36,1.27h15.54l-.35-1.27L125,123.86a10,10,0,1,0-7.09,0M177.55,78H67.45A3.44,3.44,0,0,0,64,81.45v78.1A3.44,3.44,0,0,0,67.45,163h110.1a3.44,3.44,0,0,0,3.45-3.45V81.45A3.44,3.44,0,0,0,177.55,78ZM115,138l4.13-14.82a9,9,0,1,1,4.65,0l4.13,14.8Z" transform="translate(-64 -14.5)"/></svg>